<?xml version="1.0" encoding="utf-8"?>
<!-- Generator: Adobe Illustrator 16.0.0, SVG Export Plug-In . SVG Version: 6.00 Build 0)  -->
<!DOCTYPE svg PUBLIC "-//W3C//DTD SVG 1.1//EN" "http://www.w3.org/Graphics/SVG/1.1/DTD/svg11.dtd">
<svg version="1.1" id="Icons" xmlns="http://www.w3.org/2000/svg" xmlns:xlink="http://www.w3.org/1999/xlink" x="0px" y="0px"
	 width="30px" height="4250px" viewBox="0 0 30 4250" enable-background="new 0 0 30 4250" xml:space="preserve">
<filter  id="glow-effect" primativeunits="userSpaceOnUser" y="-7.5" x="-7.5" width="15" height="15">               
	<feGaussianBlur  result="blur" in="SourceGraphic" stdDeviation="3"></feGaussianBlur>
               <feMerge>                     <feMergeNode  in="blur"></feMergeNode>
                     <feMergeNode  in="SourceGraphic"></feMergeNode>
               </feMerge>
       </filter>
<g id="profileIcon">
	<polygon fill="#585858" points="11.004,15.246 11,15.243 11,16 13,16 13,13.25 	"/>
	<polygon fill="#585858" points="5,14 2,14 2,2 7.586,2 10.445,4.859 11.859,3.445 8.414,0 0,0 0,16 5,16 	"/>
	
		<rect x="9.422" y="5.466" transform="matrix(-0.707 -0.7072 0.7072 -0.707 13.2659 24.2481)" fill="#585858" width="4.468" height="7.819"/>
	<polygon fill="#585858" points="6.123,15 6.148,13.444 6.174,11.891 7.704,13.421 9.233,14.95 7.678,14.974 	"/>
</g>
<g id="profileIcon_1_" transform="translate(0,50)">
	<polygon fill="#0B83C1" points="11.004,15.246 11,15.243 11,16 13,16 13,13.25 	"/>
	<polygon fill="#0B83C1" points="5,14 2,14 2,2 7.586,2 10.445,4.859 11.859,3.445 8.414,0 0,0 0,16 5,16 	"/>
	
		<rect x="9.422" y="5.466" transform="matrix(-0.707 -0.7072 0.7072 -0.707 13.2659 24.2481)" fill="#0B83C1" width="4.468" height="7.819"/>
	<polygon fill="#0B83C1" points="6.123,15 6.148,13.444 6.174,11.891 7.704,13.421 9.233,14.95 7.678,14.974 	"/>
</g>
<g id="playerIcon" transform="translate(0,100)">
	<polygon fill="#585858" points="5.535,10.516 10.883,7.5 5.535,4.485 	"/>
	<path fill="#585858" d="M15,7.5c0,4.136-3.364,7.5-7.5,7.5S0,11.636,0,7.5S3.364,0,7.5,0S15,3.364,15,7.5z M1.503,7.5
		c0,3.307,2.69,5.997,5.997,5.997s5.998-2.69,5.998-5.997S10.807,1.502,7.5,1.502S1.503,4.193,1.503,7.5z"/>
</g>
<g id="playerIconHover" transform="translate(0,150)">
	<polygon fill="#0B83C1" points="5.535,10.516 10.883,7.5 5.535,4.485 	"/>
	<path fill="#0B83C1" d="M15,7.5c0,4.136-3.364,7.5-7.5,7.5S0,11.636,0,7.5S3.364,0,7.5,0S15,3.364,15,7.5z M1.503,7.5
		c0,3.307,2.69,5.997,5.997,5.997s5.998-2.69,5.998-5.997S10.807,1.502,7.5,1.502S1.503,4.193,1.503,7.5z"/>
</g>
<g id="libraryIcon" transform="translate(0,200)">
	<path fill="#585858" d="M16,13H5V0h7.163L16,4.123V13z M7,11h7V4.912L11.292,2H7V11z"/>
	<polygon fill="#585858" points="11,16 0,16 0,3 5,3 5,5 2,5 2,14 9,14 9,13 11,13 	"/>
	<rect x="8" y="4" fill="#585858" width="4" height="1"/>
	<rect x="8" y="6" fill="#585858" width="5" height="1"/>
	<rect x="8" y="8" fill="#585858" width="5" height="1"/>
	<rect x="3" y="7" fill="#585858" width="2" height="1"/>
	<rect x="3" y="9" fill="#585858" width="3" height="1"/>
	<rect x="3" y="11" fill="#585858" width="3" height="1"/>
</g>
<g id="libraryIconHover" transform="translate(0,250)">
	<path fill="#0B83C1" d="M16,13H5V0h7.163L16,4.123V13z M7,11h7V4.912L11.292,2H7V11z"/>
	<polygon fill="#0B83C1" points="11,16 0,16 0,3 5,3 5,5 2,5 2,14 9,14 9,13 11,13 	"/>
	<rect x="8" y="4" fill="#0B83C1" width="4" height="1"/>
	<rect x="8" y="6" fill="#0B83C1" width="5" height="1"/>
	<rect x="8" y="8" fill="#0B83C1" width="5" height="1"/>
	<rect x="3" y="7" fill="#0B83C1" width="2" height="1"/>
	<rect x="3" y="9" fill="#0B83C1" width="3" height="1"/>
	<rect x="3" y="11" fill="#0B83C1" width="3" height="1"/>
</g>
<g id="toggleArrow" transform="translate(0,300)">
	<path fill="#585858" d="M0,0l7.156,5.657L0,11.313V0z"/>
</g>
<g id="infoIcon" transform="translate(0,350)">
	<circle fill="#3593D1" cx="8" cy="8" r="8"/>
	<path fill="#FFFFFF" d="M9.957,12.555H6.253v-0.428c0.102-0.008,0.201-0.018,0.299-0.029c0.098-0.011,0.182-0.031,0.252-0.059
		c0.125-0.047,0.213-0.115,0.264-0.203c0.051-0.088,0.076-0.203,0.076-0.348v-3.41c0-0.137-0.031-0.257-0.094-0.36
		c-0.063-0.103-0.14-0.187-0.234-0.25c-0.07-0.047-0.177-0.092-0.319-0.135s-0.272-0.07-0.39-0.082V6.824l2.871-0.152L9.066,6.76
		v4.653c0,0.137,0.029,0.252,0.088,0.348c0.059,0.096,0.143,0.168,0.252,0.215c0.078,0.035,0.164,0.066,0.258,0.094
		c0.094,0.028,0.191,0.047,0.293,0.059V12.555z M9.102,4.562c0,0.297-0.115,0.55-0.343,0.759s-0.5,0.313-0.812,0.313
		c-0.316,0-0.589-0.104-0.817-0.313S6.787,4.859,6.787,4.562S6.901,4.011,7.129,3.8S7.63,3.484,7.947,3.484
		c0.317,0,0.588,0.105,0.814,0.316C8.987,4.011,9.102,4.265,9.102,4.562z"/>
</g>
<g id="stopEnabled" transform="translate(0,400)">
	<rect fill="#525253" width="6" height="6"/>
</g>
<g id="playEnabled" transform="translate(0,450)">
	<polygon fill="#69D512" points="0,0 6,4.5 0,8 	"/>
</g>
<g id="playDisabled" transform="translate(0,500)">
	<polygon fill="#BEBEBE" points="0,0 6,4.5 0,8 	"/>
</g>
<g id="expandArrow" transform="translate(0,550)">
	<path fill="#59595B" d="M0,0l4.771,3.771L0,7.542V0z"/>
</g>
<g id="whiteDownArrow" transform="translate(0,600)">
	<polygon fill="#FFFFFF" points="0,0 5,6.931 10,0 	"/>
</g>
<g id="downArrow" transform="translate(0,650)">
	<polygon fill="#58595B" points="0,0 5,6.931 10,0 	"/>
</g>
<g id="libraryPlayButton" transform="translate(0,700)">
	<path fill="#2695DD" d="M13.654,2.342c-3.122-3.123-8.187-3.123-11.311,0c-3.125,3.124-3.125,8.19,0,11.314
		c3.122,3.123,8.188,3.123,11.311,0C16.782,10.531,16.782,5.466,13.654,2.342z M8.729,9.878l-3.396,1.88V7.997v-3.76l3.396,1.88
		l3.396,1.88L8.729,9.878z"/>
</g>
<g id="libraryReport" transform="translate(0,750)">
	<path fill="#2695DD" d="M8.414,0H0v16h13V4.586L8.414,0z M11,14H2V2h5.586L8,2.415V5h2.586L11,5.415V14z"/>
	<rect x="3" y="8" fill="#2695DD" width="7" height="1"/>
	<rect x="3" y="5" fill="#2695DD" width="4" height="1"/>
	<rect x="3" y="11" fill="#2695DD" width="7" height="1"/>
</g>
<g id="libraryTrash" transform="translate(0,800)">
	<path fill="#2695DD" d="M3,2C3,3,3,2,3,2v2h2V2h3v2h2V2c0,0,0,1,0,0c0-2-1-2-2-2S7,0,5,0S3,1,3,2z"/>
	<path fill="#2695DD" d="M13,3.5C13,3.225,12.775,3,12.5,3h-12C0.225,3,0,3.225,0,3.5v1C0,4.775,0.225,5,0.5,5l0,0
		C0.775,5,1,5.225,1,5.5v10C1,15.775,1.225,16,1.5,16h10c0.275,0,0.5-0.225,0.5-0.5v-10C12,5.225,12.225,5,12.5,5l0,0
		C12.775,5,13,4.775,13,4.5V3.5z M4,13.5C4,13.775,3.775,14,3.5,14l0,0C3.225,14,3,13.775,3,13.5V6.086c0-0.275,0.225-0.5,0.5-0.5
		l0,0c0.275,0,0.5,0.225,0.5,0.5V13.5z M7,13.5C7,13.775,6.775,14,6.5,14l0,0C6.225,14,6,13.775,6,13.5V6.086
		c0-0.275,0.225-0.5,0.5-0.5l0,0c0.275,0,0.5,0.225,0.5,0.5V13.5z M10,13.5c0,0.275-0.225,0.5-0.5,0.5l0,0C9.225,14,9,13.775,9,13.5
		V6.086c0-0.275,0.225-0.5,0.5-0.5l0,0c0.275,0,0.5,0.225,0.5,0.5V13.5z"/>
</g>
<g id="libraryTrashWhite" transform="translate(0,850)">
	<path fill="#FFFFFF" d="M3,2C3,3,3,2,3,2v2h2V2h3v2h2V2c0,0,0,1,0,0c0-2-1-2-2-2S7,0,5,0S3,1,3,2z"/>
	<path fill="#FFFFFF" d="M13,3.5C13,3.225,12.775,3,12.5,3h-12C0.225,3,0,3.225,0,3.5v1C0,4.775,0.225,5,0.5,5l0,0
		C0.775,5,1,5.225,1,5.5v10C1,15.775,1.225,16,1.5,16h10c0.275,0,0.5-0.225,0.5-0.5v-10C12,5.225,12.225,5,12.5,5l0,0
		C12.775,5,13,4.775,13,4.5V3.5z M4,13.5C4,13.775,3.775,14,3.5,14l0,0C3.225,14,3,13.775,3,13.5V6.086c0-0.275,0.225-0.5,0.5-0.5
		l0,0c0.275,0,0.5,0.225,0.5,0.5V13.5z M7,13.5C7,13.775,6.775,14,6.5,14l0,0C6.225,14,6,13.775,6,13.5V6.086
		c0-0.275,0.225-0.5,0.5-0.5l0,0c0.275,0,0.5,0.225,0.5,0.5V13.5z M10,13.5c0,0.275-0.225,0.5-0.5,0.5l0,0C9.225,14,9,13.775,9,13.5
		V6.086c0-0.275,0.225-0.5,0.5-0.5l0,0c0.275,0,0.5,0.225,0.5,0.5V13.5z"/>
</g>
<g id="sortingIcon" transform="translate(0,900)">
	<path fill="#FFFFFF" d="M3.008,5L0,0h6.016L3.008,5z"/>
</g>
<g id="print" transform="translate(0,950)">
	<path fill="#3694D1" d="M15.5,5H13V2.661L10.375,0H3v5H1.5L0,5.5V11h3v1.5V14h1.5h8H13v-1.5V11h3V5.5L15.5,5z M2.5,6.5h-1v-1h1V6.5
		z M12,9.5v1V13H4v-2.5v-1V8h8V9.5z M12,5H4V1h5v3h3V5z M15.344,9.25h-0.938v-1.5h0.938V9.25z"/>
	<rect x="5" y="9" fill="#3694D1" width="6" height="1"/>
	<rect x="5" y="11" fill="#3694D1" width="6" height="1"/>
</g>
<g id="x" transform="translate(0,1000)">
	<polygon fill="#CC0000" points="14.143,11.312 9.899,7.068 14.142,2.826 11.312,0 7.07,4.241 2.828,0 0,2.826 4.242,7.07 0,11.312 
		2.828,14.141 7.07,9.898 11.313,14.141 	"/>
</g>
<g id="small-plus" transform="translate(0,1050)">
	<path fill="#3694D1" d="M7,0H2C0.9,0,0,0.9,0,2v5c0,1.1,0.9,2,2,2h5c1.1,0,2-0.9,2-2V2C9,0.9,8.1,0,7,0z M7,5H5v2H4V5H2V4h2V2h1v2
		h2V5z"/>
</g>
<g id="big-plus" transform="translate(0,1100)">
	<path fill="#3694D1" d="M11,0H1C0.45,0,0,0.451,0,1v10c0,0.55,0.45,1,1,1h10c0.55,0,1-0.45,1-1V1C12,0.451,11.55,0,11,0z M10,7H7v3
		H5V7H2V5h3V2h2v3h3V7z"/>
</g>
<g id="user" transform="translate(0,1150)">
	<path fill="#BBBBBB" d="M15.258,12.169c-0.467-0.728-2.036-1.182-3.59-1.828c-1.554-0.646-1.922-0.873-1.922-0.873l-0.015-1.49
		c0,0,0.582-0.444,0.763-1.85c0.364,0.105,0.746-0.543,0.767-0.885c0.021-0.329-0.05-1.243-0.494-1.15
		c0.091-0.687,0.156-1.306,0.125-1.633C10.775,1.264,9.597,0,7.784,0S4.793,1.264,4.678,2.46C4.646,2.788,4.711,3.407,4.802,4.093
		c-0.444-0.092-0.515,0.822-0.494,1.15c0.021,0.341,0.402,0.99,0.767,0.885c0.181,1.402,0.763,1.85,0.763,1.85l-0.015,1.49
		c0,0-0.368,0.229-1.922,0.873c-1.554,0.646-3.123,1.104-3.59,1.828c-0.419,0.654-0.293,3.789-0.293,3.789h7.767h7.767
		C15.551,15.958,15.677,12.823,15.258,12.169z"/>
</g>
<g id="dropdown-arrow" transform="translate(0,1200)">
	<polygon fill="#7E7E7E" points="0,0 9,0 4.5,6 	"/>
</g>
<g id="boxed-check" transform="translate(0,1250)">
	<path fill="#009900" d="M7.347,12.855l-4.29-5.039C2.616,7.298,2.711,6.544,3.272,6.133c0.561-0.409,1.373-0.32,1.816,0.197
		l2.176,2.558l6.539-8.312c0.42-0.536,1.23-0.655,1.806-0.267c0.578,0.394,0.703,1.144,0.283,1.679L7.347,12.855L7.347,12.855z"/>
	<path fill="#009900" d="M13.141,3.079v12h-12v-12H13.141 M14.141,2.079h-14v14h14V2.079L14.141,2.079z"/>
</g>
<g id="big-check" transform="translate(0,1300)">
	<path fill="#009900" d="M9.045,24.289L0.55,14.708c-0.875-0.982-0.688-2.42,0.424-3.197c1.109-0.778,2.72-0.608,3.598,0.374
		l4.308,4.86L21.832,0.939c0.832-1.019,2.438-1.246,3.579-0.506c1.144,0.743,1.394,2.172,0.562,3.188L9.045,24.289L9.045,24.289z"/>
</g>
<g id="sort-alpha" transform="translate(0,1350)">
	<g>
		<path fill="#7E7E7E" d="M11.652,5.878H8.988l-0.37,1.107H6.223L9.076,0.28h2.56l2.853,6.705h-2.456L11.652,5.878z M11.165,4.429
			l-0.839-2.41l-0.828,2.41H11.165z"/>
		<path fill="#7E7E7E" d="M7.163,9.004h6.641v1.34L9.54,14.268h4.418v1.441H6.753v-1.391l4.218-3.886H7.163V9.004z"/>
	</g>
	<polygon fill="#7E7E7E" points="6.077,3.81 4.694,3.81 4.694,0.256 2.794,0.256 2.794,3.81 1.511,3.81 3.794,7.01 	"/>
</g>
<g id="sort-alpha-active" transform="translate(0,1400)">
	<g>
		<path fill="#086699" d="M11.652,5.878H8.988l-0.37,1.107H6.223L9.076,0.28h2.56l2.853,6.705h-2.456L11.652,5.878z M11.165,4.429
			l-0.839-2.41l-0.828,2.41H11.165z"/>
		<path fill="#086699" d="M7.163,9.004h6.641v1.34L9.54,14.268h4.418v1.441H6.753v-1.391l4.218-3.886H7.163V9.004z"/>
	</g>
	<polygon fill="#086699" points="6.077,3.81 4.694,3.81 4.694,0.256 2.794,0.256 2.794,3.81 1.511,3.81 3.794,7.01 	"/>
</g>
<g id="sort-date" transform="translate(0,1450)">
	<rect x="5" y="5.835" fill="#7E7E7E" width="2" height="2"/>
	<rect x="8" y="5.835" fill="#7E7E7E" width="2" height="2"/>
	<rect x="11" y="5.835" fill="#7E7E7E" width="2" height="2"/>
	<rect x="2" y="8.835" fill="#7E7E7E" width="2" height="2"/>
	<rect x="5" y="8.835" fill="#7E7E7E" width="2" height="2"/>
	<rect x="8" y="8.835" fill="#7E7E7E" width="2" height="2"/>
	<rect x="11" y="8.835" fill="#7E7E7E" width="2" height="2"/>
	<rect x="2" y="11.835" fill="#7E7E7E" width="2" height="2"/>
	<rect x="5" y="11.835" fill="#7E7E7E" width="2" height="2"/>
	<rect x="8" y="11.835" fill="#7E7E7E" width="2" height="2"/>
	<path fill="#7E7E7E" d="M13,1.835v-2h-3v2H5v-2H2v2H0v14h15v-14H13z M11,0.835h1v2h-1V0.835z M3,0.835h1v2H3V0.835z M14,14.835H1
		v-10h13V14.835z"/>
</g>
<g id="sort-date-active" transform="translate(0,1500)">
	<rect x="5" y="5.835" fill="#086699" width="2" height="2"/>
	<rect x="8" y="5.835" fill="#086699" width="2" height="2"/>
	<rect x="11" y="5.835" fill="#086699" width="2" height="2"/>
	<rect x="2" y="8.835" fill="#086699" width="2" height="2"/>
	<rect x="5" y="8.835" fill="#086699" width="2" height="2"/>
	<rect x="8" y="8.835" fill="#086699" width="2" height="2"/>
	<rect x="11" y="8.835" fill="#086699" width="2" height="2"/>
	<rect x="2" y="11.835" fill="#086699" width="2" height="2"/>
	<rect x="5" y="11.835" fill="#086699" width="2" height="2"/>
	<rect x="8" y="11.835" fill="#086699" width="2" height="2"/>
	<path fill="#086699" d="M13,1.835v-2h-3v2H5v-2H2v2H0v14h15v-14H13z M11,0.835h1v2h-1V0.835z M3,0.835h1v2H3V0.835z M14,14.835H1
		v-10h13V14.835z"/>
</g>
<g id="sort-group" transform="translate(0,1550)">
	<path fill="#FCFCFC" d="M0,13c0,0.55,0.45,1,1,1h13c0.55,0,1-0.45,1-1V5c0-0.55-0.45-1-1-1H8C7.45,4,6.704,3.661,6.341,3.248
		L5.909,2.752C5.546,2.339,4.8,2,4.25,2H1C0.45,2,0,2.45,0,3V13z"/>
</g>
<g id="sort-group-active" transform="translate(0,1650)">
	<path fill="#585858" d="M0,13c0,0.55,0.45,1,1,1h13c0.55,0,1-0.45,1-1V5c0-0.55-0.45-1-1-1H8C7.45,4,6.704,3.661,6.341,3.248
		L5.909,2.752C5.546,2.339,4.8,2,4.25,2H1C0.45,2,0,2.45,0,3V13z"/>
</g>
<g id="sort-protocol" transform="translate(0,1700)">
	<g>
		<path fill="#FCFCFC" d="M13,12H8V2h5v2h2V0H6v6H0v2h6v6h9v-4h-2V12z M11,6v2h10V6H11z"/>
	</g>
</g>
<g id="sort-protocol-active" transform="translate(0,1750)">
	<g>
		<path fill="#585858" d="M13,12H8V2h5v2h2V0H6v6H0v2h6v6h9v-4h-2V12z M11,6v2h10V6H11z"/>
	</g>
</g>
<g id="sort-tcp" transform="translate(0,1800)">
	<path fill="#FCFCFC" d="M16,10h-2V4l-4-3H2v7H0v1h2v6h12v-4h2V10z M4,3h5v2h3v5H7V7H6v1H4V3z M12,13H4V9h2v3h1v-1h5V13z"/>
</g>
<g id="sort-tcp-active" transform="translate(0,1850)">
	<path fill="#585858" d="M16,10h-2V4l-4-3H2v7H0v1h2v6h12v-4h2V10z M4,3h5v2h3v5H7V7H6v1H4V3z M12,13H4V9h2v3h1v-1h5V13z"/>
</g>
<g id="sort-subnet" transform="translate(0,1900)">
	<path fill="#FCFCFC" d="M12.5,9.85v-2v-1h-4v-1h3v-1v-4h-6h-1v5h3v1h-4v1v2h-2h-1v5h7l0,0v-5h-3v-2h7v2h-2h-1v5h7l0,0v-5H12.5z"/>
</g>
<g id="sort-subnet-active" transform="translate(0,1950)">
	<path fill="#585858" d="M12.5,9.85v-2v-1h-4v-1h3v-1v-4h-6h-1v5h3v1h-4v1v2h-2h-1v5h7l0,0v-5h-3v-2h7v2h-2h-1v5h7l0,0v-5H12.5z"/>
</g>
<g id="sort-host" transform="translate(0,2000)">
	<g>
		<polygon fill="#FCFCFC" points="0,4 8,8 16,4 8,0 		"/>
	</g>
	<g>
		<polygon fill="#FCFCFC" points="8,9.469 3.062,7 0,8 8,12 16,8 13.188,6.938 		"/>
	</g>
	<g>
		<polygon fill="#FCFCFC" points="8,13.469 3.062,11 0,12 8,16 16,12 13.188,10.938 		"/>
	</g>
</g>
<g id="sort-host-active" transform="translate(0,2050)">
	<g>
		<polygon fill="#585858" points="0,4 8,8 16,4 8,0 		"/>
	</g>
	<g>
		<polygon fill="#585858" points="8,9.469 3.062,7 0,8 8,12 16,8 13.188,6.938 		"/>
	</g>
	<g>
		<polygon fill="#585858" points="8,13.469 3.062,11 0,12 8,16 16,12 13.188,10.938 		"/>
	</g>
</g>
<g id="sort-restarter" transform="translate(0,2100)">
	<g>
		<path fill="#FCFCFC" d="M8.113,1.75c3.446,0,6.25,2.804,6.25,6.25s-2.804,6.25-6.25,6.25c-3.446,0-6.25-2.804-6.25-6.25
			S4.667,1.75,8.113,1.75 M8.113,0.5c-4.142,0-7.5,3.358-7.5,7.5c0,4.143,3.358,7.5,7.5,7.5c4.143,0,7.5-3.357,7.5-7.5
			C15.613,3.858,12.256,0.5,8.113,0.5L8.113,0.5z"/>
	</g>
	<g>
		<g>
			<polygon fill="#FCFCFC" points="8.613,8.5 8.613,2.5 7.613,2.5 7.613,9.5 12.613,9.5 12.613,8.5 			"/>
		</g>
	</g>
</g>
<g id="sort-restarter-active" transform="translate(0,2150)">
	<g>
		<path fill="#FCFCFC" d="M8.113,1.75c3.446,0,6.25,2.804,6.25,6.25s-2.804,6.25-6.25,6.25c-3.446,0-6.25-2.804-6.25-6.25
			S4.667,1.75,8.113,1.75 M8.113,0.5c-4.142,0-7.5,3.358-7.5,7.5c0,4.143,3.358,7.5,7.5,7.5c4.143,0,7.5-3.357,7.5-7.5
			C15.613,3.858,12.256,0.5,8.113,0.5L8.113,0.5z"/>
	</g>
	<g>
		<g>
			<polygon fill="#FCFCFC" points="8.613,8.5 8.613,2.5 7.613,2.5 7.613,9.5 12.613,9.5 12.613,8.5 			"/>
		</g>
	</g>
</g>
<g id="sort-monitor" transform="translate(0,2200)">
	<path fill="#FCFCFC" d="M8,2.5c3.032,0,5.5,2.467,5.5,5.5c0,3.034-2.468,5.5-5.5,5.5c-3.033,0-5.5-2.466-5.5-5.5
		C2.5,4.968,4.967,2.5,8,2.5 M8,1.5C4.41,1.5,1.5,4.41,1.5,8c0,3.591,2.91,6.5,6.5,6.5s6.5-2.908,6.5-6.5C14.5,4.41,11.59,1.5,8,1.5
		L8,1.5z"/>
	<rect x="7.5" y="0.5" fill="#FCFCFC" width="1" height="5"/>
	<rect x="7.5" y="10.5" fill="#FCFCFC" width="1" height="5"/>
	<rect x="10.5" y="7.5" fill="#FCFCFC" width="5" height="1"/>
	<rect x="0.5" y="7.5" fill="#FCFCFC" width="5" height="1"/>
	<g>
		<path fill="#FCFCFC" d="M8,6c1.104,0,2,0.895,2,2s-0.896,2-2,2c-1.105,0-2-0.895-2-2S6.895,6,8,6z"/>
	</g>
</g>
<g id="sort-monitor-active" transform="translate(0,2250)">
	<path fill="#FDFDFD" d="M8,2.5c3.032,0,5.5,2.467,5.5,5.5c0,3.034-2.468,5.5-5.5,5.5c-3.033,0-5.5-2.466-5.5-5.5
		C2.5,4.968,4.967,2.5,8,2.5 M8,1.5C4.41,1.5,1.5,4.41,1.5,8c0,3.591,2.91,6.5,6.5,6.5s6.5-2.908,6.5-6.5C14.5,4.41,11.59,1.5,8,1.5
		L8,1.5z"/>
	<rect x="7.5" y="0.5" fill="#FDFDFD" width="1" height="5"/>
	<rect x="7.5" y="10.5" fill="#FDFDFD" width="1" height="5"/>
	<rect x="10.5" y="7.5" fill="#FDFDFD" width="5" height="1"/>
	<rect x="0.5" y="7.5" fill="#FDFDFD" width="5" height="1"/>
	<g>
		<path fill="#FDFDFD" d="M8,6c1.104,0,2,0.895,2,2s-0.896,2-2,2c-1.105,0-2-0.895-2-2S6.895,6,8,6z"/>
	</g>
</g>
<g id="sort-alpha-reverse" transform="translate(0,2300)">
	<g>
		<path fill="#7E7E7E" d="M11.652,14.637H8.988l-0.37,1.107H6.223l2.854-6.705h2.56l2.853,6.705h-2.456L11.652,14.637z
			 M11.165,13.188l-0.839-2.407l-0.828,2.407H11.165z"/>
		<path fill="#7E7E7E" d="M7.163,0.305h6.641v1.34L9.54,5.568h4.418v1.438H6.753v-1.39l4.218-3.883H7.163V0.305z"/>
	</g>
	<polygon fill="#7E7E7E" points="6.077,3.811 4.694,3.811 4.694,0.256 2.794,0.256 2.794,3.811 1.511,3.811 3.794,7.01 	"/>
</g>
<g id="sort-alpha-reverse-active" transform="translate(0,2350)">
	<g>
		<path fill="#585858" d="M11.652,14.637H8.988l-0.37,1.107H6.223l2.854-6.705h2.56l2.853,6.705h-2.456L11.652,14.637z
			 M11.165,13.188l-0.839-2.407l-0.828,2.407H11.165z"/>
		<path fill="#585858" d="M7.163,0.305h6.641v1.34L9.54,5.568h4.418v1.438H6.753v-1.39l4.218-3.883H7.163V0.305z"/>
	</g>
	<polygon fill="#585858" points="6.077,3.811 4.694,3.811 4.694,0.256 2.794,0.256 2.794,3.811 1.511,3.811 3.794,7.01 	"/>
</g>
<g id="test-profile" transform="translate(0,2400)">
	<path fill="#FDFDFD" d="M15.662,16V0h-1h-15v4v12 M5.662,2h1v1h-1V2z M3.662,2h1v1h-1V2z M1.662,2h1v1h-1V2z M13.662,14h-12V4h12
		V14z"/>
	<g>
		<polygon fill="#FDFDFD" points="6.724,11.994 4.662,8.902 3.078,11.277 2.246,10.723 4.662,7.099 6.6,10.006 8.662,5.882 
			10.799,10.156 12.309,8.646 13.016,9.354 10.525,11.844 8.662,8.119 		"/>
	</g>
</g>
<g id="test-profile-active" transform="translate(0,2450)">
	<path fill="#585858" d="M15.662,16V0h-1h-15v4v12 M5.662,2h1v1h-1V2z M3.662,2h1v1h-1V2z M1.662,2h1v1h-1V2z M13.662,14h-12V4h12
		V14z"/>
	<g>
		<polygon fill="#585858" points="6.724,11.994 4.662,8.902 3.078,11.277 2.246,10.723 4.662,7.099 6.6,10.006 8.662,5.882 
			10.799,10.156 12.309,8.646 13.016,9.354 10.525,11.844 8.662,8.119 		"/>
	</g>
</g>
<g id="group-profile-open" transform="translate(0,2500)">
	<polygon fill="#585858" points="1.654,3.773 7.423,3.773 5.115,1.465 1.654,1.465 	"/>
	<polygon fill="#585858" points="14.346,14.158 1.654,14.158 0.5,6.08 15.5,6.08 	"/>
	<rect x="1.654" y="3.773" fill="#585858" width="12.691" height="1.15"/>
</g>
<g id="restarter-active" transform="translate(0,2550)">
	<g>
		<path fill="#585858" d="M8.113,1.75c3.446,0,6.25,2.804,6.25,6.25s-2.804,6.25-6.25,6.25c-3.446,0-6.25-2.804-6.25-6.25
			S4.667,1.75,8.113,1.75 M8.113,0.5c-4.142,0-7.5,3.358-7.5,7.5c0,4.143,3.358,7.5,7.5,7.5c4.143,0,7.5-3.357,7.5-7.5
			C15.613,3.858,12.256,0.5,8.113,0.5L8.113,0.5z"/>
	</g>
	<g>
		<g>
			<polygon fill="#585858" points="8.613,8.5 8.613,2.5 7.613,2.5 7.613,9.5 12.613,9.5 12.613,8.5 			"/>
		</g>
	</g>
</g>
<g id="monitor-active" transform="translate(0,2600)">
	<path fill="#585858" d="M8,2.5c3.032,0,5.5,2.467,5.5,5.5c0,3.034-2.468,5.5-5.5,5.5c-3.033,0-5.5-2.466-5.5-5.5
		C2.5,4.968,4.967,2.5,8,2.5 M8,1.5C4.41,1.5,1.5,4.41,1.5,8c0,3.591,2.91,6.5,6.5,6.5s6.5-2.908,6.5-6.5C14.5,4.41,11.59,1.5,8,1.5
		L8,1.5z"/>
	<rect x="7.5" y="0.5" fill="#585858" width="1" height="5"/>
	<rect x="7.5" y="10.5" fill="#585858" width="1" height="5"/>
	<rect x="10.5" y="7.5" fill="#585858" width="5" height="1"/>
	<rect x="0.5" y="7.5" fill="#585858" width="5" height="1"/>
	<g>
		<path fill="#FCFCFC" d="M8,6c1.104,0,2,0.895,2,2s-0.896,2-2,2c-1.105,0-2-0.895-2-2S6.895,6,8,6z"/>
	</g>
</g>
<g id="x-gray-small" transform="translate(0,2650),scale(0.6)">
	<polygon fill="#999999" points="14.143,11.312 9.899,7.069 14.142,2.826 11.312,0 7.07,4.242 2.828,0 0,2.826 4.242,7.07 0,11.312 
		2.828,14.141 7.07,9.898 11.313,14.141 	"/>
</g>
<g id="fuzz-faults" transform="translate(0,2700)">
	<rect fill="#D42031" width="10" height="10"/>
</g>
<g id="fuzz-warnings" transform="translate(0,2750)">
	<rect fill="#EF6D05" width="10" height="10"/>
</g>
<g id="fuzz-host-blue" transform="translate(0,2800)">
	<g>
		<polygon fill="#18679A" points="0,4 8,8 16,4 8,0 		"/>
	</g>
	<g>
		<polygon fill="#18679A" points="8,9.469 3.062,7 0,8 8,12 16,8 13.187,6.938 		"/>
	</g>
	<g>
		<polygon fill="#18679A" points="8,13.469 3.062,11 0,12 8,16 16,12 13.187,10.938 		"/>
	</g>
</g>
<g id="fuzz-host-gray" transform="translate(0,2850)">
	<g>
		<polygon fill="#58595B" points="0,4 8,8 16,4 8,0 		"/>
	</g>
	<g>
		<polygon fill="#58595B" points="8,9.469 3.062,7 0,8 8,12 16,8 13.187,6.938 		"/>
	</g>
	<g>
		<polygon fill="#58595B" points="8,13.469 3.062,11 0,12 8,16 16,12 13.187,10.938 		"/>
	</g>
</g>
<g id="subnet-blue" transform="translate(0,2900)">
	<path fill="#18679A" d="M12,9V7V6H8V5h3V4V0H5H4v5h3v1H3v1v2H1H0v5h7l0,0V9H4V7h7v2H9H8v5h7l0,0V9H12z"/>
</g>
<g id="subnet-gray" transform="translate(0,2950)">
	<path fill="#58595B" d="M12,9V7V6H8V5h3V4V0H5H4v5h3v1H3v1v2H1H0v5h7l0,0V9H4V7h7v2H9H8v5h7l0,0V9H12z"/>
</g>
<g id="protocol-blue" transform="translate(0,3000)">
	<g>
		<g>
			<path fill="#18679A" d="M13,12H8V2h5v2h2V0H6v6H0v2h6v6h9v-4h-2V12z M11,6v2h10V6H11z"/>
		</g>
	</g>
</g>
<g id="protocol-gray" transform="translate(0,3050)">
	<g>
		<g>
			<path fill="#58595B" d="M13,12H8V2h5v2h2V0H6v6H0v2h6v6h9v-4h-2V12z M11,6v2h10V6H11z"/>
		</g>
	</g>
</g>
<g id="test-queue-blue" transform="translate(0,3100)">
	<g>
		<path fill="#2695DD" d="M14.165,6.04h-2.089c-0.125-0.401-0.299-0.779-0.512-1.131l1.386-1.39c0.327-0.323,0.327-0.854,0-1.181
			l-0.588-0.587c-0.326-0.324-0.853-0.323-1.178,0L9.774,3.16C9.392,2.945,8.979,2.777,8.54,2.665V0.833C8.54,0.374,8.169,0,7.707,0
			H6.874C6.416,0,6.043,0.374,6.043,0.833v1.832c-0.479,0.12-0.928,0.312-1.34,0.562l-1.18-1.179c-0.325-0.323-0.854-0.325-1.179,0
			L1.753,2.637c-0.325,0.324-0.321,0.855,0.002,1.18l1.201,1.201C2.703,5.461,2.512,5.944,2.403,6.456H0.835
			C0.373,6.456,0,6.829,0,7.29v0.834c0,0.458,0.373,0.831,0.835,0.831H2.51c0.151,0.502,0.381,0.966,0.674,1.387l-1.133,1.133
			c-0.326,0.327-0.326,0.856-0.003,1.184l0.588,0.588c0.327,0.32,0.856,0.32,1.18-0.002l1.266-1.268
			c0.427,0.213,0.889,0.365,1.376,0.444v1.743c0,0.46,0.373,0.832,0.833,0.834h0.833c0.459-0.002,0.833-0.374,0.833-0.834v-1.958
			c0.42-0.149,0.818-0.347,1.178-0.601l1.341,1.343c0.326,0.325,0.852,0.325,1.179,0l0.588-0.589
			c0.327-0.324,0.327-0.854-0.002-1.182l-1.47-1.474c0.181-0.365,0.321-0.755,0.408-1.167h1.984c0.462,0,0.834-0.371,0.835-0.835
			v-0.83C14.998,6.414,14.627,6.04,14.165,6.04z M7.293,9.58c-1.15,0-2.082-0.93-2.082-2.082c0-1.151,0.933-2.082,2.082-2.082
			c1.151,0,2.084,0.931,2.084,2.082C9.377,8.65,8.444,9.58,7.293,9.58z"/>
	</g>
</g>
<g id="testReport" transform="translate(0,3150), scale(0.8)">
	<path fill="#FFFFFF" d="M8.414,0H0v16h13V4.586L8.414,0z M11,14H2V2h5.586L8,2.415V5h2.586L11,5.415V14z"/>
	<rect x="3" y="8.001" fill="#FFFFFF" width="7" height="1.001"/>
	<rect x="3" y="5" fill="#FFFFFF" width="4" height="1"/>
	<rect x="3" y="11" fill="#FFFFFF" width="7" height="1"/>
</g>
<g id="arrow-next" transform="translate(0,3200),scale(1.3)">
	<polygon fill="#595959" points="0,6.03 5.348,3.016 0,0 	"/>
</g>
<g id="arrow-previous" transform="translate(0,3250),scale(1.3)">
	<polygon fill="#595959" points="5.348,0 0,3.016 5.348,6.03 	"/>
</g>
<g id="download" transform="translate(0,3300)">
	<polygon fill="#0B83C1" points="10,0 6,0 6,5 4,5 8,9 12,5 10,5 	"/>
	<polyline fill="#0B83C1" points="0,9 0,14 16,14 16,9 13,9 13,11 3,11 3,9 0,9 	"/>
</g>
<g id="panel-expander-up" transform="translate(0,3350),scale(1.3)">
	<polygon points="12.446,5.601 8.556,2.101 6.223,0 3.89,2.101 0,5.601 2.334,7.702 6.223,4.201 10.112,7.702 	"/>
</g>
<g id="panel-expander-down" transform="translate(0,3400),scale(1.3)">
	<polygon points="0,2.101 3.89,5.601 6.223,7.702 8.556,5.601 12.446,2.101 10.112,0 6.223,3.5 2.334,0 	"/>
</g>
<g id="expandArrowWhiteCollapsed" transform="translate(0,3450)">
	<polygon fill="#FFFFFF" points="0,0 6,4.5 0,8 	"/>
</g>
<g id="dropdown-arrow-white" transform="translate(0,3500)">
	<polygon fill="#FFFFFF" points="0,0 9,0 4.5,6 	"/>
</g>
<g id="modifiedSaveArrow" transform="translate(0,3550)">
	<polygon fill="#0B83C1" points="0,0 5,6.931 10,0 	"/>
</g>
<g id="indicator-on" transform="translate(0,3600)">
	<g filter="url(#glow-effect)">
		<circle fill="#00CC00" cx="10" cy="10" r="5"/>
	</g>
	<circle fill="#00CC00" stroke="#A7A7A7" cx="10" cy="10" r="5"/>
</g>
<g id="indicator-off" transform="translate(0,3650)">
	<circle fill="#999999" cx="10" cy="10" r="5"/>
	<circle fill="#999999" stroke="#A7A7A7" cx="10" cy="10" r="5"/>
</g>
<g filter="url(#glow-effect)">
	<circle fill="#00CC00" cx="12.5" cy="3712.5" r="7.5"/>
</g>
<circle fill="#00CC00" stroke="#A7A7A7" cx="12.5" cy="3712.5" r="7.5"/>
<g>
	<g id="power-symbol">
		<path fill="none" stroke="#FFFFFF" stroke-width="1.5" stroke-linecap="round" d="M9.9,3710.383c-0.558,0.623-0.9,1.45-0.9,2.354
			c0,1.938,1.564,3.514,3.5,3.514c1.931,0,3.5-1.571,3.5-3.514c0-0.903-0.342-1.73-0.9-2.354"/>
		<line fill="none" stroke="#FFFFFF" stroke-width="1.5" stroke-linecap="round" x1="12.505" y1="3708" x2="12.505" y2="3712.737"/>
	</g>
</g>
<circle fill="#A7A7A7" cx="12.5" cy="3762.5" r="7.5"/>
<circle fill="#999999" stroke="#A7A7A7" cx="12.5" cy="3762.5" r="7.5"/>
<g>
	<g id="power-symbol_1_">
		<path fill="none" stroke="#FFFFFF" stroke-width="1.5" stroke-linecap="round" d="M9.9,3760.383c-0.558,0.623-0.9,1.45-0.9,2.354
			c0,1.938,1.564,3.514,3.5,3.514c1.931,0,3.5-1.571,3.5-3.514c0-0.903-0.342-1.73-0.9-2.354"/>
		<line fill="none" stroke="#FFFFFF" stroke-width="1.5" stroke-linecap="round" x1="12.505" y1="3758" x2="12.505" y2="3762.737"/>
	</g>
</g>
<g id="grey-x" transform="translate(0,3800)">
	<polygon fill="#A7A7A7" points="14.638,11.588 10.395,7.344 14.637,3.102 11.808,0.275 7.565,4.518 3.323,0.275 0.495,3.102 
		4.737,7.346 0.495,11.588 3.323,14.417 7.565,10.174 11.809,14.417 	"/>
</g>
<g id="check" transform="translate(0,3850)">
	<path fill="#3694D1" d="M5.292,13.814L0.438,8.34c-0.501-0.562-0.394-1.383,0.241-1.827c0.634-0.446,1.554-0.35,2.056,0.214
		l2.462,2.777l7.401-9.032c0.476-0.579,1.393-0.712,2.045-0.286c0.653,0.427,0.796,1.238,0.32,1.819L5.292,13.814L5.292,13.814z"/>
</g>
<g id="warn" transform="translate(0,3900)">
	<path fill="#CC0000" d="M14.878,12.472l-2.104-3.979c-0.521-0.97-1.375-2.554-1.896-3.521L8.774,1.066
		c-0.521-0.971-1.375-0.971-1.896,0L4.775,4.99C4.254,5.958,3.4,7.561,2.879,8.53l-2.104,3.94c-0.521,0.974-0.048,1.832,1.052,1.832
		h4c1.1,0,2.9,0,4,0h4C14.926,14.304,15.399,13.444,14.878,12.472z M8.826,12.304h-2v-2h2V12.304z M8.826,9.304h-2v-4h2V9.304z"/>
</g>
<g id="warn-big" transform="translate(0,3950) scale(2,2)">
	<path fill="#CC0000" d="M14.878,12.472l-2.104-3.979c-0.521-0.969-1.375-2.553-1.896-3.521L8.774,1.066
		c-0.521-0.969-1.375-0.969-1.896,0L4.775,4.99C4.254,5.958,3.4,7.561,2.879,8.53l-2.104,3.943
		c-0.521,0.971-0.048,1.832,1.052,1.832h4c1.1,0,2.9,0,4,0h4C14.926,14.304,15.399,13.443,14.878,12.472z M8.826,12.304h-2v-2h2
		V12.304z M8.826,9.304h-2v-4h2V9.304z"/>
</g>
<g id="print_white" transform="translate(0,4000)">
	<path fill="#FFFFFF" d="M15.5,5H13V2.662L10.375,0H3v5H1.5L0,5.5V11h3v1.5V14h1.5h8H13v-1.5V11h3V5.5L15.5,5z M2.5,6.5h-1v-1h1V6.5
		z M12,9.5v1V13H4v-2.5v-1V8h8V9.5z M12,5H4V1h5v3h3V5z M15.344,9.25h-0.938v-1.5h0.938V9.25z"/>
	<rect x="5" y="9" fill="#FFFFFF" width="6" height="1"/>
	<rect x="5" y="11" fill="#FFFFFF" width="6" height="1"/>
</g>
<g id="pdf_white" transform="translate(0,4050)">
	<path fill="#FFFFFF" d="M10.414,0H2v16h13V4.586L10.414,0z M13,14H4V2h5.586L10,2.416V5h2.586L13,5.416V14z"/>
	<rect x="5" y="8" fill="#FFFFFF" width="7" height="1"/>
	<rect x="5" y="5" fill="#FFFFFF" width="4" height="1"/>
	<rect x="5" y="11" fill="#FFFFFF" width="7" height="1"/>
</g>
<g id="warning_box_pointer" transform="translate(0,4100)">
	<polyline fill="#FFD7D7" stroke="#FF0000" stroke-miterlimit="10" points="0.273,0.5 16.488,0.5 0.352,16.5 	"/>
</g>
<g id="warning_box_close" transform="translate(0,4150)">
	<circle fill="#FFFFFF" stroke="#666666" stroke-width="2" stroke-miterlimit="10" cx="10" cy="10" r="8"/>
	<g id="grey-x_1_" transform="translate(0,3800)">
		<polygon fill="#666666" points="14.444,-3787.466 11.91,-3790 14.443,-3792.534 12.754,-3794.221 10.22,-3791.689 
			7.687,-3794.221 5.998,-3792.534 8.531,-3790 5.998,-3787.466 7.687,-3785.778 10.22,-3788.311 12.754,-3785.778 		"/>
	</g>
</g>
<g id="check_1_" transform="translate(0,4200) scale(0.6)">
	<path fill="#009900" d="M9.045,24.289L0.55,14.707c-0.875-0.98-0.688-2.419,0.424-3.197c1.109-0.781,2.72-0.609,3.598,0.376
		l4.308,4.86L21.832,0.939c0.833-1.016,2.438-1.245,3.579-0.503c1.145,0.742,1.392,2.168,0.561,3.185L9.045,24.289L9.045,24.289z"/>
</g>
<g>
	<g>
		<g>
			<rect x="9.219" y="32.166" fill="#585858" width="9.121" height="1.86"/>
		</g>
	</g>
	<path fill="#585858" stroke="#585858" stroke-width="0.25" stroke-miterlimit="10" d="M18.248,26.238
		c-2.725,0-5.078,1.654-6.146,4.029h1.934c0.91-1.386,2.459-2.301,4.213-2.301c2.793,0,5.063,2.316,5.063,5.164
		c0,2.848-2.271,5.165-5.063,5.165c-1.853,0-3.477-1.021-4.359-2.539H12c1.014,2.502,3.432,4.268,6.248,4.268
		c3.727,0,6.758-3.093,6.758-6.894C25.006,29.329,21.975,26.238,18.248,26.238z"/>
	<rect x="23.551" y="32.187" fill="#585858" width="6.449" height="1.84"/>
</g>
<g>
	<g>
		<g>
			<rect x="9.219" y="81.99" fill="#18679A" width="9.121" height="1.86"/>
		</g>
	</g>
	<path fill="#18679A" stroke="#18679A" stroke-width="0.25" stroke-miterlimit="10" d="M18.248,76.061
		c-2.725,0-5.078,1.654-6.146,4.03h1.934c0.91-1.387,2.459-2.302,4.213-2.302c2.793,0,5.063,2.317,5.063,5.164
		c0,2.849-2.271,5.165-5.063,5.165c-1.853,0-3.477-1.021-4.359-2.539H12c1.014,2.502,3.432,4.268,6.248,4.268
		c3.727,0,6.758-3.092,6.758-6.894C25.006,79.154,21.975,76.061,18.248,76.061z"/>
	<rect x="23.551" y="82.01" fill="#18679A" width="6.449" height="1.841"/>
</g>
<g>
	<g>
		<g>
			<rect x="9.219" y="131.656" fill="#0290D7" width="9.121" height="1.86"/>
		</g>
	</g>
	<path fill="#0290D7" stroke="#0290D7" stroke-width="0.25" stroke-miterlimit="10" d="M18.248,125.728
		c-2.725,0-5.078,1.654-6.146,4.03h1.934c0.91-1.387,2.459-2.302,4.213-2.302c2.793,0,5.063,2.317,5.063,5.164
		c0,2.849-2.271,5.165-5.063,5.165c-1.853,0-3.477-1.021-4.359-2.539H12c1.014,2.502,3.432,4.268,6.248,4.268
		c3.727,0,6.758-3.092,6.758-6.894C25.006,128.821,21.975,125.728,18.248,125.728z"/>
	<rect x="23.551" y="131.676" fill="#0290D7" width="6.449" height="1.841"/>
</g>
<g>
	<rect x="14.045" y="275.477" fill="#0290D7" width="14.689" height="1.993"/>
	<g>
		<g>
			<polygon fill="#0290D7" points="20.365,275.605 18.779,274.716 19.412,273.575 20.998,274.464 			"/>
			<path fill="#0290D7" d="M20.383,275.669l-1.668-0.935l0.68-1.224l1.668,0.935L20.383,275.669z M18.842,274.699l1.504,0.843
				l0.588-1.06l-1.502-0.843L18.842,274.699z"/>
		</g>
		<g>
			
				<rect x="16.636" y="274.807" transform="matrix(0.8722 0.4892 -0.4892 0.8722 138.5969 27.0434)" fill="#0290D7" width="1.818" height="7.9"/>
			<path fill="#0290D7" d="M16.426,282.712l-1.666-0.935l0.022-0.041l3.879-6.935l1.668,0.935l-0.023,0.042L16.426,282.712z
				 M14.887,281.742l1.503,0.843l3.811-6.812l-1.502-0.843L14.887,281.742z"/>
		</g>
		<g>
			<polygon fill="#0290D7" points="16.291,282.821 14.424,284.302 14.715,281.938 			"/>
			<path fill="#0290D7" d="M14.364,284.411l0.313-2.549l1.698,0.952L14.364,284.411z M14.753,282.012l-0.269,2.182l1.722-1.367
				L14.753,282.012z"/>
		</g>
		<g>
			<path fill="#0290D7" d="M21.414,272.058l-0.166-0.094c-0.393-0.22-0.959,0.049-1.27,0.601l-0.482,0.862l1.584,0.888l0.482-0.861
				C21.871,272.902,21.805,272.277,21.414,272.058z"/>
			<path fill="#0290D7" d="M21.098,274.379l-1.666-0.934l0.506-0.903c0.24-0.426,0.635-0.701,1.008-0.701
				c0.119,0,0.227,0.028,0.324,0.083l0.168,0.093c0.203,0.114,0.33,0.331,0.361,0.609c0.029,0.273-0.041,0.575-0.195,0.85
				L21.098,274.379z M19.561,273.409l1.502,0.842l0.459-0.821c0.145-0.258,0.211-0.54,0.184-0.794
				c-0.027-0.248-0.139-0.438-0.314-0.537l-0.166-0.094c-0.084-0.047-0.178-0.07-0.279-0.07c-0.334,0-0.705,0.263-0.926,0.653
				L19.561,273.409z"/>
		</g>
	</g>
	<g>
		
			<rect x="26.075" y="279.165" transform="matrix(0.9005 -0.4349 0.4349 0.9005 -119.3868 39.5809)" fill="#0290D7" width="1.432" height="2.973"/>
		<path fill="#0290D7" d="M26.793,282.63c-0.121,0-0.238-0.069-0.295-0.186l-1.295-2.677c-0.037-0.079-0.043-0.169-0.014-0.251
			c0.027-0.082,0.088-0.149,0.166-0.188l1.289-0.622c0.164-0.079,0.359-0.011,0.439,0.153l1.293,2.677
			c0.039,0.079,0.043,0.168,0.016,0.251c-0.029,0.083-0.09,0.15-0.168,0.188l-1.289,0.623
			C26.891,282.619,26.842,282.63,26.793,282.63z M25.938,279.777l1.01,2.085l0.695-0.336l-1.008-2.085L25.938,279.777z"/>
	</g>
	<g>
		<polyline fill="#0290D7" points="21.543,269.734 26.635,278.119 24.949,278.934 21.543,269.734 		"/>
		<path fill="#0290D7" d="M24.949,279.215c-0.035,0-0.07-0.007-0.105-0.02c-0.072-0.03-0.131-0.09-0.158-0.164l-3.406-9.199
			c-0.051-0.136,0.012-0.289,0.141-0.352c0.133-0.063,0.289-0.017,0.363,0.107l5.094,8.384c0.041,0.068,0.051,0.15,0.029,0.227
			c-0.023,0.076-0.076,0.14-0.148,0.174l-1.686,0.815C25.033,279.206,24.992,279.215,24.949,279.215z M22.828,272.393l2.279,6.152
			L26.234,278L22.828,272.393z"/>
	</g>
	<g>
		<path fill="#0290D7" d="M27.904,284.901c0.135,0.281,0.484,0.392,0.781,0.249c0.295-0.143,1.105-0.519,0.969-0.799l-1.174-0.991
			l-1.07,0.518L27.904,284.901z"/>
		<path fill="#0290D7" d="M28.416,285.541L28.416,285.541c-0.352,0-0.66-0.19-0.809-0.497l-0.494-1.023
			c-0.037-0.079-0.043-0.168-0.014-0.251c0.027-0.082,0.088-0.15,0.166-0.188l1.072-0.518c0.117-0.056,0.256-0.039,0.355,0.044
			l1.174,0.991c0.035,0.029,0.064,0.066,0.084,0.108c0.057,0.117,0.062,0.25,0.018,0.377c-0.107,0.312-0.502,0.554-1.104,0.843
			l-0.037,0.018C28.699,285.508,28.557,285.541,28.416,285.541z M27.848,284.031l0.352,0.727c0.055,0.112,0.213,0.158,0.342,0.096
			l0.039-0.019c0.387-0.186,0.584-0.308,0.682-0.385l-0.83-0.701L27.848,284.031z"/>
	</g>
</g>
<g>
	<rect x="14.046" y="181.623" fill="#595959" width="14.689" height="1.993"/>
	<g>
		<g>
			<polygon fill="#595959" points="20.365,181.751 18.78,180.862 19.413,179.721 20.999,180.61 			"/>
			<path fill="#595959" d="M20.384,181.815l-1.668-0.935l0.68-1.224l1.667,0.935L20.384,181.815z M18.843,180.845l1.504,0.843
				l0.588-1.06l-1.503-0.843L18.843,180.845z"/>
		</g>
		<g>
			
				<rect x="16.636" y="180.954" transform="matrix(0.8723 0.489 -0.489 0.8723 92.6658 15.0386)" fill="#595959" width="1.818" height="7.9"/>
			<path fill="#595959" d="M16.427,188.858l-1.666-0.935l0.022-0.041l3.88-6.935l1.668,0.935l-0.023,0.042L16.427,188.858z
				 M14.888,187.888l1.504,0.843l3.811-6.812l-1.502-0.843L14.888,187.888z"/>
		</g>
		<g>
			<polygon fill="#595959" points="16.292,188.967 14.425,190.448 14.716,188.083 			"/>
			<path fill="#595959" d="M14.364,190.557l0.313-2.549l1.698,0.952L14.364,190.557z M14.754,188.158l-0.269,2.182l1.723-1.367
				L14.754,188.158z"/>
		</g>
		<g>
			<path fill="#595959" d="M21.415,178.204l-0.167-0.094c-0.392-0.22-0.959,0.049-1.269,0.601l-0.482,0.862l1.584,0.888l0.482-0.861
				C21.872,179.048,21.806,178.423,21.415,178.204z"/>
			<path fill="#595959" d="M21.099,180.525l-1.666-0.934l0.506-0.903c0.24-0.426,0.635-0.701,1.008-0.701
				c0.118,0,0.227,0.028,0.324,0.083l0.168,0.093c0.203,0.114,0.33,0.331,0.36,0.609c0.029,0.273-0.04,0.575-0.194,0.85
				L21.099,180.525z M19.561,179.555l1.502,0.842l0.46-0.821c0.145-0.258,0.21-0.54,0.183-0.794
				c-0.026-0.248-0.138-0.438-0.313-0.537l-0.166-0.094c-0.084-0.047-0.178-0.07-0.279-0.07c-0.334,0-0.706,0.263-0.926,0.653
				L19.561,179.555z"/>
		</g>
	</g>
	<g>
		
			<rect x="26.076" y="185.311" transform="matrix(0.9004 -0.4352 0.4352 0.9004 -78.6169 30.2721)" fill="#595959" width="1.431" height="2.973"/>
		<path fill="#595959" d="M26.794,188.776c-0.122,0-0.239-0.069-0.296-0.186l-1.294-2.677c-0.037-0.079-0.043-0.169-0.014-0.251
			c0.027-0.082,0.088-0.149,0.166-0.188l1.289-0.622c0.163-0.079,0.359-0.011,0.438,0.153l1.294,2.677
			c0.038,0.079,0.043,0.168,0.015,0.251s-0.089,0.15-0.167,0.188l-1.289,0.623C26.892,188.765,26.843,188.776,26.794,188.776z
			 M25.939,185.923l1.009,2.085l0.696-0.336l-1.008-2.085L25.939,185.923z"/>
	</g>
	<g>
		<polyline fill="#595959" points="21.544,175.88 26.636,184.265 24.95,185.08 21.544,175.88 		"/>
		<path fill="#595959" d="M24.95,185.361c-0.035,0-0.07-0.007-0.105-0.02c-0.073-0.03-0.131-0.09-0.158-0.164l-3.406-9.199
			c-0.051-0.136,0.011-0.289,0.141-0.352c0.132-0.063,0.289-0.017,0.363,0.107l5.094,8.384c0.041,0.068,0.051,0.15,0.028,0.227
			s-0.075,0.14-0.147,0.174l-1.686,0.815C25.034,185.352,24.992,185.361,24.95,185.361z M22.829,178.539l2.278,6.152l1.128-0.545
			L22.829,178.539z"/>
	</g>
	<g>
		<path fill="#595959" d="M27.905,191.047c0.135,0.281,0.484,0.392,0.78,0.249s1.105-0.519,0.97-0.799l-1.174-0.991l-1.071,0.518
			L27.905,191.047z"/>
		<path fill="#595959" d="M28.416,191.687L28.416,191.687c-0.351,0-0.659-0.19-0.808-0.497l-0.494-1.023
			c-0.038-0.079-0.043-0.168-0.015-0.251c0.028-0.082,0.089-0.15,0.167-0.188l1.072-0.518c0.116-0.056,0.256-0.039,0.354,0.044
			l1.175,0.991c0.035,0.029,0.063,0.066,0.084,0.108c0.057,0.117,0.062,0.25,0.018,0.377c-0.108,0.312-0.502,0.554-1.104,0.843
			l-0.037,0.018C28.7,191.654,28.558,191.687,28.416,191.687z M27.849,190.177l0.352,0.727c0.055,0.112,0.213,0.158,0.342,0.096
			l0.039-0.019c0.387-0.186,0.583-0.308,0.682-0.385l-0.83-0.701L27.849,190.177z"/>
	</g>
</g>
<g>
	<rect x="14.045" y="228.55" fill="#18679A" width="14.689" height="1.993"/>
	<g>
		<g>
			<polygon fill="#18679A" points="20.365,228.678 18.779,227.789 19.412,226.648 20.998,227.537 			"/>
			<path fill="#18679A" d="M20.383,228.742l-1.668-0.935l0.68-1.224l1.668,0.935L20.383,228.742z M18.842,227.771l1.504,0.843
				l0.588-1.06l-1.502-0.843L18.842,227.771z"/>
		</g>
		<g>
			
				<rect x="16.636" y="227.88" transform="matrix(0.8722 0.4892 -0.4892 0.8722 115.6424 21.046)" fill="#18679A" width="1.818" height="7.9"/>
			<path fill="#18679A" d="M16.426,235.785l-1.666-0.935l0.022-0.041l3.879-6.935l1.668,0.935l-0.023,0.042L16.426,235.785z
				 M14.887,234.814l1.503,0.843l3.811-6.812l-1.502-0.843L14.887,234.814z"/>
		</g>
		<g>
			<polygon fill="#18679A" points="16.291,235.894 14.424,237.375 14.715,235.01 			"/>
			<path fill="#18679A" d="M14.364,237.483l0.313-2.549l1.698,0.952L14.364,237.483z M14.753,235.085l-0.269,2.182l1.722-1.367
				L14.753,235.085z"/>
		</g>
		<g>
			<path fill="#18679A" d="M21.414,225.131l-0.166-0.094c-0.393-0.22-0.959,0.049-1.27,0.601l-0.482,0.862l1.584,0.888l0.482-0.861
				C21.871,225.975,21.805,225.35,21.414,225.131z"/>
			<path fill="#18679A" d="M21.098,227.452l-1.666-0.934l0.506-0.903c0.24-0.426,0.635-0.701,1.008-0.701
				c0.119,0,0.227,0.028,0.324,0.083l0.168,0.093c0.203,0.114,0.33,0.331,0.361,0.609c0.029,0.273-0.041,0.575-0.195,0.85
				L21.098,227.452z M19.561,226.481l1.502,0.842l0.459-0.821c0.145-0.258,0.211-0.54,0.184-0.794
				c-0.027-0.248-0.139-0.438-0.314-0.537l-0.166-0.094c-0.084-0.047-0.178-0.07-0.279-0.07c-0.334,0-0.705,0.263-0.926,0.653
				L19.561,226.481z"/>
		</g>
	</g>
	<g>
		
			<rect x="26.075" y="232.238" transform="matrix(0.9005 -0.4349 0.4349 0.9005 -98.9785 34.9108)" fill="#18679A" width="1.432" height="2.973"/>
		<path fill="#18679A" d="M26.793,235.703c-0.121,0-0.238-0.069-0.295-0.186l-1.295-2.677c-0.037-0.079-0.043-0.169-0.014-0.251
			c0.027-0.082,0.088-0.149,0.166-0.188l1.289-0.622c0.164-0.079,0.359-0.011,0.439,0.153l1.293,2.677
			c0.039,0.079,0.043,0.168,0.016,0.251c-0.029,0.083-0.09,0.15-0.168,0.188l-1.289,0.623
			C26.891,235.691,26.842,235.703,26.793,235.703z M25.938,232.85l1.01,2.085l0.695-0.336l-1.008-2.085L25.938,232.85z"/>
	</g>
	<g>
		<polyline fill="#18679A" points="21.543,222.807 26.635,231.191 24.949,232.006 21.543,222.807 		"/>
		<path fill="#18679A" d="M24.949,232.288c-0.035,0-0.07-0.007-0.105-0.02c-0.072-0.03-0.131-0.09-0.158-0.164l-3.406-9.199
			c-0.051-0.136,0.012-0.289,0.141-0.352c0.133-0.063,0.289-0.017,0.363,0.107l5.094,8.384c0.041,0.068,0.051,0.15,0.029,0.227
			c-0.023,0.076-0.076,0.14-0.148,0.174l-1.686,0.815C25.033,232.279,24.992,232.288,24.949,232.288z M22.828,225.466l2.279,6.152
			l1.127-0.545L22.828,225.466z"/>
	</g>
	<g>
		<path fill="#18679A" d="M27.904,237.974c0.135,0.281,0.484,0.392,0.781,0.249c0.295-0.143,1.105-0.519,0.969-0.799l-1.174-0.991
			l-1.07,0.518L27.904,237.974z"/>
		<path fill="#18679A" d="M28.416,238.614L28.416,238.614c-0.352,0-0.66-0.19-0.809-0.497l-0.494-1.023
			c-0.037-0.079-0.043-0.168-0.014-0.251c0.027-0.082,0.088-0.15,0.166-0.188l1.072-0.518c0.117-0.056,0.256-0.039,0.355,0.044
			l1.174,0.991c0.035,0.029,0.064,0.066,0.084,0.108c0.057,0.117,0.062,0.25,0.018,0.377c-0.107,0.312-0.502,0.554-1.104,0.843
			l-0.037,0.018C28.699,238.581,28.557,238.614,28.416,238.614z M27.848,237.104l0.352,0.727c0.055,0.112,0.213,0.158,0.342,0.096
			l0.039-0.019c0.387-0.186,0.584-0.308,0.682-0.385l-0.83-0.701L27.848,237.104z"/>
	</g>
</g>
</svg>
